<svg width="600" height="550" xmlns="http://www.w3.org/2000/svg">
 <defs>
  <filter id="svg_1_blur">
   <feGaussianBlur in="SourceGraphic" stdDeviation="0"/>
  </filter>
 </defs>
 <g>
  <title>Layer 1</title>
  <line fill="none" x1="298.7337" y1="79.79123" x2="298.7337" y2="270.90072" id="svg_9" stroke="#000"/>
  <line transform="rotate(-30 210.751 319.525)" stroke="#000" fill="none" x1="309.50986" y1="319.42058" x2="111.99317" y2="319.62935" id="svg_10"/>
  <path stroke="#000" id="svg_11" d="m301.7337,279.79122l176,83" opacity="undefined" fill="none"/>
  <path fill="#DDDDDD" stroke="#000" opacity="undefined" d="m298.23371,135.78092c-32.87293,0 -59.5,-26.62707 -59.5,-59.5c0,-32.87292 26.62707,-59.5 59.5,-59.5c32.87292,0 59.49999,26.62708 59.49999,59.5c0,32.87293 -26.62707,59.5 -59.49999,59.5z" id="svg_3"/>
  <text fill="#000000" x="286.01429" y="84.35647" id="svg_4" stroke-width="0" font-size="24" font-family="Noto Sans JP" text-anchor="start" xml:space="preserve" stroke="#000">P1</text>
  <path fill="#DDDDDD" stroke="#000" opacity="undefined" d="m474.25809,417.78092c-32.87293,0 -59.5,-26.62707 -59.5,-59.5c0,-32.87292 26.62707,-59.5 59.5,-59.5c32.87292,0 59.49999,26.62708 59.49999,59.5c0,32.87293 -26.62707,59.5 -59.49999,59.5z" id="svg_7"/>
  <text fill="#000000" x="462.19092" y="365.18753" id="svg_8" stroke-width="0" font-size="24" font-family="Noto Sans JP" text-anchor="start" xml:space="preserve" stroke="#000">P3</text>
  <path fill="#DDDDDD" stroke="#000" opacity="undefined" d="m130.23371,423.78092c-32.87293,0 -59.5,-26.62707 -59.5,-59.5c0,-32.87292 26.62707,-59.5 59.5,-59.5c32.87292,0 59.49999,26.62708 59.49999,59.5c0,32.87293 -26.62707,59.5 -59.49999,59.5z" id="svg_5"/>
  <text fill="#000000" x="114.01896" y="374.46811" id="svg_6" stroke-width="0" font-size="24" font-family="Noto Sans JP" text-anchor="start" xml:space="preserve" stroke="#000">P2</text>
  <line fill="none" stroke="#000" x1="300.99998" y1="328.66665" x2="300.99998" y2="412.66665" id="svg_16"/>
  <line stroke="#000" fill="none" x1="132.99998" y1="189.66666" x2="296.99998" y2="269.66666" id="svg_17"/>
  <line transform="rotate(-30 376.5 227.833)" stroke="#000" fill="none" x1="461.99999" y1="227.66665" x2="290.99997" y2="228" id="svg_18"/>
  <path fill="#FABA6F" stroke="#000" opacity="undefined" d="m299.20848,329.79122c-32.87293,0 -59.5,-26.62707 -59.5,-59.5c0,-32.87293 26.62707,-59.5 59.5,-59.5c32.87293,0 59.5,26.62707 59.5,59.5c0,32.87293 -26.62707,59.5 -59.5,59.5z" id="svg_1" filter="url(#svg_1_blur)"/>
  <text fill="#000000" x="286.7337" y="276.94947" id="svg_2" stroke-width="0" font-size="24" font-family="Noto Sans JP" text-anchor="start" xml:space="preserve" stroke="#000">P0</text>
  <path fill="#DDDDDD" stroke="#000" opacity="undefined" d="m130.23371,245.78092c-32.87293,0 -59.5,-26.62707 -59.5,-59.5c0,-32.87292 26.62707,-59.5 59.5,-59.5c32.87292,0 59.49999,26.62708 59.49999,59.5c0,32.87293 -26.62707,59.5 -59.49999,59.5z" id="svg_12"/>
  <path fill="#DDDDDD" stroke="#000" opacity="undefined" d="m467.23371,248.78092c-32.87293,0 -59.5,-26.62707 -59.5,-59.5c0,-32.87292 26.62707,-59.5 59.5,-59.5c32.87292,0 59.49999,26.62708 59.49999,59.5c0,32.87293 -26.62707,59.5 -59.49999,59.5z" id="svg_14"/>
  <text fill="#000000" x="116.7337" y="196.94947" id="svg_21" stroke-width="0" font-size="24" font-family="Noto Sans JP" text-anchor="start" xml:space="preserve" stroke="#000">P4</text>
  <text fill="#000000" x="453.7337" y="197.94947" id="svg_22" stroke-width="0" font-size="24" font-family="Noto Sans JP" text-anchor="start" xml:space="preserve" stroke="#000">P5</text>
  <path fill="#DDDDDD" stroke="#000" opacity="undefined" d="m301.23371,519.78092c-32.87293,0 -59.5,-26.62707 -59.5,-59.5c0,-32.87292 26.62707,-59.5 59.5,-59.5c32.87292,0 59.49999,26.62708 59.49999,59.5c0,32.87293 -26.62707,59.5 -59.49999,59.5z" id="svg_15"/>
  <text fill="#000000" x="289.7337" y="468.94947" id="svg_23" stroke-width="0" font-size="24" font-family="Noto Sans JP" text-anchor="start" xml:space="preserve" stroke="#000">P6</text>
 </g>
</svg>